<svg id="sprite" xmlns="http://www.w3.org/2000/svg" xmlns:xlink="http://www.w3.org/1999/xlink" viewBox="0 0 1019.49 50"><defs><style>.cls-1,.cls-2{fill:none;}.cls-1{stroke:#665822;stroke-miterlimit:10;}.cls-3{fill:#665822;}.cls-4{fill:#e1c34b;}.cls-5{fill:#333;}.cls-6{fill:#fff;}.cls-7{fill:#faa61a;}</style><symbol id="burger" data-name="burger" viewBox="0 0 50 50"><path class="cls-1" d="M13,17H37M13,25H37M13,33H37"/><rect class="cls-2" width="50" height="50"/></symbol><symbol id="Close" data-name="Close" viewBox="0 0 50 50"><path class="cls-1" d="M37,37,13,13m24,0L13,37"/><rect class="cls-2" width="50" height="50"/></symbol><symbol id="logo" data-name="logo" viewBox="0 0 100 50"><path class="cls-3" d="M59.72,17.25v4.4A4.57,4.57,0,0,1,61.48,20a4.85,4.85,0,0,1,2.41-.55,5.09,5.09,0,0,1,4.23,2.14,8.85,8.85,0,0,1,1.65,5.55,8.85,8.85,0,0,1-1.65,5.55,4.65,4.65,0,0,1-2.22,1.51,8.75,8.75,0,0,1-2.78.46,9.22,9.22,0,0,1-4.89-1.37Q56,31.87,56,28V15.39h1.87a1.86,1.86,0,0,1,1.87,1.86ZM66,26.92a5,5,0,0,0-.82-3.07,2.63,2.63,0,0,0-2.26-1.16,2.79,2.79,0,0,0-2.36,1.1,5.28,5.28,0,0,0-.82,3.13,5.65,5.65,0,0,0,.77,3.35,2.68,2.68,0,0,0,2.3,1.16,2.74,2.74,0,0,0,2.37-1.16A5.69,5.69,0,0,0,66,26.92Z"/><path class="cls-3" d="M81.58,29.83h2.75A6,6,0,0,1,82,33.35a7,7,0,0,1-4.29,1.26,6.13,6.13,0,0,1-4.89-2,8.25,8.25,0,0,1-1.75-5.66,8.13,8.13,0,0,1,1.7-5.49,6.1,6.1,0,0,1,4.89-2,6.61,6.61,0,0,1,5.11,2A8.41,8.41,0,0,1,84.55,27v.61a.85.85,0,0,1-.06.38H75a3.77,3.77,0,0,0,.82,2.53,2.59,2.59,0,0,0,2.14.88,3.08,3.08,0,0,0,1.6-.39.7.7,0,0,0,.3-.19l.3-.3a1.18,1.18,0,0,1,.41-.44A1.67,1.67,0,0,1,81.58,29.83ZM75,25.55h5.6a3.55,3.55,0,0,0-.77-2.2,2.63,2.63,0,0,0-2-.77,2.68,2.68,0,0,0-2,.77A3.16,3.16,0,0,0,75,25.55Z"/><path class="cls-3" d="M96.3,29.83h2.75a6,6,0,0,1-2.31,3.52,7,7,0,0,1-4.29,1.26,6.13,6.13,0,0,1-4.89-2,8.25,8.25,0,0,1-1.75-5.66,8.13,8.13,0,0,1,1.7-5.49,6.1,6.1,0,0,1,4.89-2,6.61,6.61,0,0,1,5.11,2A8.41,8.41,0,0,1,99.27,27v.61a.85.85,0,0,1-.06.38h-9.5a3.77,3.77,0,0,0,.82,2.53,2.59,2.59,0,0,0,2.14.88,3.08,3.08,0,0,0,1.6-.39.7.7,0,0,0,.3-.19l.3-.3a1.18,1.18,0,0,1,.41-.44A1.67,1.67,0,0,1,96.3,29.83Zm-6.59-4.28h5.6a3.55,3.55,0,0,0-.77-2.2,2.65,2.65,0,0,0-2-.77,2.68,2.68,0,0,0-2,.77A3.16,3.16,0,0,0,89.71,25.55Z"/><path class="cls-7" d="M15.51,31.88a7.8,7.8,0,0,0,.73,2h7.07v-2h-7.8Z"/><polygon class="cls-7" points="15.35 27.59 15.35 29.61 23.26 29.59 23.31 29.59 23.31 27.59 15.35 27.59"/><rect class="cls-7" x="15.35" y="23.4" width="7.96" height="1.92"/><path class="cls-7" d="M15.51,16.84h7.8V10.56A7.71,7.71,0,0,0,15.51,16.84Z"/><path class="cls-7" d="M18,36.18a7.9,7.9,0,0,0,5.3,2v-2Z"/><path class="cls-7" d="M15.35,21.13h8v-2h-8Z"/><path class="cls-6" d="M25.55,15.31a3.37,3.37,0,0,0-2.38-1,1,1,0,0,1,0-2,5.27,5.27,0,0,1,3.77,1.57,1,1,0,0,1-1.39,1.39Z"/><path class="cls-3" d="M38.27,16.85h-5a10.17,10.17,0,0,0-4.17-6.71l3.2-3.19a1.14,1.14,0,1,0-1.61-1.61L27.06,9a10.08,10.08,0,0,0-7.88.12L15.4,5.33a1.14,1.14,0,1,0-1.61,1.61l3.37,3.37a10.13,10.13,0,0,0-3.94,6.53h-5a7.52,7.52,0,1,0,0,15h5a10.14,10.14,0,0,0,8.91,8.51v3.47a1.13,1.13,0,1,0,2.26,0V40.37a10.05,10.05,0,0,0,8.91-8.49h5a7.52,7.52,0,0,0,0-15ZM13.08,29.61H8.26a5.25,5.25,0,1,1,0-10.5h4.82ZM31,16.83H15.51C17.23,8.46,29.27,8.46,31,16.83ZM18,36.18h10.5A7.86,7.86,0,0,1,18,36.18Zm12.27-2.27h-14a7.8,7.8,0,0,1-.73-2H31A7.8,7.8,0,0,1,30.28,33.91Zm.89-4.3H15.35v-2H31.17Zm0-4.29H15.35V23.4H31.17Zm0-4.19H15.35v-2H31.17Zm7.1,8.49H33.44V19.11h4.83a5.25,5.25,0,0,1,0,10.5Z"/><rect class="cls-2" width="100" height="50"/></symbol><symbol id="slider_button" data-name="slider_button" viewBox="0 0 50 50"><path class="cls-3" d="M25,46A21,21,0,1,1,46,25,21,21,0,0,1,25,46ZM25,6A19,19,0,1,0,44,25,19,19,0,0,0,25,6Zm8,13.5H17v1H33Zm0,4.64H17v1H33Zm0,4.64H17v1H33Z"/><rect class="cls-2" width="50" height="50"/></symbol><symbol id="check" data-name="check" viewBox="0 0 50 50"><rect class="cls-2" width="50" height="50"/><path class="cls-4" d="M36,36H14V14H36ZM16,34H34V16H16Z"/></symbol><symbol id="checked" data-name="checked" viewBox="0 0 49.68 49.68"><rect class="cls-2" width="49.68" height="49.68"/><rect class="cls-6" x="14.43" y="14.84" width="20" height="20"/><path class="cls-5" d="M35.35,17.05l1.9,2L24.72,30.63l-.1-.09L22,27.73,18.14,23.6l2-1.78,4.59,5.09Z"/></symbol><symbol id="star_checked" data-name="star_checked" viewBox="0 0 50 50"><polygon class="cls-3" points="25 12 28.38 21.72 38.67 21.93 30.47 28.15 33.45 38 25 32.12 16.55 38 19.53 28.15 11.33 21.93 21.62 21.72 25 12"/><rect class="cls-2" width="50" height="50"/></symbol><symbol id="star" data-name="star" viewBox="0 0 50 50"><polygon class="cls-4" points="25 12 28.38 21.72 38.67 21.93 30.47 28.15 33.45 38 25 32.12 16.55 38 19.53 28.15 11.33 21.93 21.62 21.72 25 12"/><rect class="cls-2" width="50" height="50"/></symbol><symbol id="cloth01" data-name="cloth01" viewBox="0 0 67.89 49.17"><path class="cls-3" d="M65.32,32.43,48.05,4.61a.42.42,0,0,0-.4-.19H20.22a.41.41,0,0,0-.38.19L2.57,32.43a.48.48,0,0,0,0,.31.42.42,0,0,0,.19.26l6.51,4a.4.4,0,0,0,.57-.13l10-16.16V44.34a.42.42,0,0,0,.42.42H47.59a.42.42,0,0,0,.42-.42V20.65L58.1,36.91a.4.4,0,0,0,.57.13l6.52-4a.4.4,0,0,0,.18-.26A.38.38,0,0,0,65.32,32.43Zm-26-19.14,1,5.92L36.7,25.12V14.6l.9-1.74,0-.09,3.74-7.26,4.07,3.77-5.9,3.58A.43.43,0,0,0,39.35,13.29ZM35.87,14.5V26.57h0V43.93H32V26.58h0V14.5a.43.43,0,0,0,0-.19l-.2-.38a5.12,5.12,0,0,0,4.33,0l-.19.38A.45.45,0,0,0,35.87,14.5Zm-7.52-1.64L22.44,9.28l4.08-3.77,3.73,7.26.05.09.89,1.74V25.12l-3.66-5.91,1-5.92A.43.43,0,0,0,28.35,12.86Zm8.56-.48a4.25,4.25,0,0,1-5.92,0L27.32,5.25H31.8V7a.42.42,0,0,0,.42.42h3.45A.42.42,0,0,0,36.09,7V5.25h4.49ZM35.26,5.25V6.62H32.63V5.25ZM20.65,19.3V13.81a.41.41,0,0,0-.41-.41.41.41,0,0,0-.42.41v5.37L9.31,36.12,3.5,32.52,20.42,5.25h5.16L21.47,9a.45.45,0,0,0-.13.35.44.44,0,0,0,.2.31l6.14,3.73-1,5.8a.38.38,0,0,0,.06.29l4.45,7.17V43.93H20.65ZM58.59,36.12,48,19.08V13.81a.42.42,0,0,0-.83,0V43.93H36.7V26.69l4.46-7.17a.42.42,0,0,0,.05-.29l-1-5.8L46.35,9.7a.39.39,0,0,0,.2-.31A.42.42,0,0,0,46.42,9l-4.1-3.79h5.07l.12,0L64.4,32.52ZM28.85,33.57,27.32,32a.42.42,0,0,0-.59,0l-5,5a.41.41,0,0,0,0,.58l1.53,1.54a.47.47,0,0,0,.3.12.45.45,0,0,0,.29-.12l5-5A.42.42,0,0,0,28.85,33.57Zm-5.29,4.71-.95-1L27,32.92l.95.94ZM41.16,32a.41.41,0,0,0-.58,0L39,33.57a.42.42,0,0,0,0,.59l5,5a.47.47,0,0,0,.3.12.45.45,0,0,0,.29-.12l1.53-1.54a.39.39,0,0,0,0-.58Zm3.18,6.24-4.42-4.42.95-.94,4.41,4.41Z"/><rect class="cls-2" width="67.89" height="49.18"/></symbol><symbol id="cloth02" data-name="cloth02" viewBox="0 0 50 50"><path class="cls-3" d="M27.84,45.74V43.42a.08.08,0,0,1,.08-.07h.17a.36.36,0,0,0,.36-.36.36.36,0,0,0-.36-.36h-.17a.09.09,0,0,1-.08-.08v-14a.09.09,0,0,1,0-.06,4.52,4.52,0,0,0,0-7,.07.07,0,0,1,0-.06V7.4a.08.08,0,0,1,.08-.07h.76A.36.36,0,0,0,29,7a.36.36,0,0,0-.35-.36h-.76a.09.09,0,0,1-.08-.08V4.26a2.84,2.84,0,0,0-5.68,0V6.53a.09.09,0,0,1-.08.08h-.75A.36.36,0,0,0,21,7a.36.36,0,0,0,.36.36h.75a.08.08,0,0,1,.08.07V21.45h0a.07.07,0,0,1,0,.06,4.52,4.52,0,0,0,0,7,.09.09,0,0,1,0,.06v14a.09.09,0,0,1-.08.08h-.17a.36.36,0,0,0-.36.36.36.36,0,0,0,.36.36h.17a.08.08,0,0,1,.08.07v2.32a2.84,2.84,0,0,0,5.68,0ZM23,6.61a.08.08,0,0,1-.08-.08V4.26a2.12,2.12,0,0,1,4.24,0V6.53a.08.08,0,0,1-.08.08ZM23,21a.06.06,0,0,1-.08,0,.08.08,0,0,1,0-.07V7.4A.07.07,0,0,1,23,7.33H27a.07.07,0,0,1,.08.07V20.88a.08.08,0,0,1,0,.07A.06.06,0,0,1,27,21a4.53,4.53,0,0,0-4,0ZM21.2,25A3.8,3.8,0,1,1,25,28.8,3.81,3.81,0,0,1,21.2,25Zm4.24,17.63a.09.09,0,0,1-.08-.08v-1.8a.36.36,0,0,0-.72,0v1.8a.08.08,0,0,1-.08.08H23a.08.08,0,0,1-.08-.08V29.12a.08.08,0,0,1,0-.07s.06,0,.08,0a4.53,4.53,0,0,0,4,0s0,0,.08,0a.08.08,0,0,1,0,.07V42.55a.08.08,0,0,1-.08.08Zm-2.56,3.11V43.42a.07.07,0,0,1,.08-.07H27a.07.07,0,0,1,.08.07v2.32a2.12,2.12,0,1,1-4.24,0ZM25,10.08a.49.49,0,1,1,.48-.49A.48.48,0,0,1,25,10.08Zm0,2.65a.48.48,0,0,1-.48-.48.48.48,0,0,1,1,0A.48.48,0,0,1,25,12.73Zm-.12,2.64a.49.49,0,1,1,.59-.35A.49.49,0,0,1,24.88,15.37ZM24,26.9a.35.35,0,0,1-.26.1.35.35,0,0,1-.25-.1.36.36,0,0,1-.11-.26.36.36,0,0,1,.11-.25l1.15-1.15a.14.14,0,0,0,0-.06v-2.3a.36.36,0,1,1,.72,0v2.49a.2.2,0,0,1,0,.07h0v0s0,0,0,0,0,0,0,0v0h0s0,0-.05.06Z"/><rect class="cls-2" width="50" height="50"/></symbol><symbol id="cloth06" data-name="cloth06" viewBox="0 0 50 50"><path class="cls-3" d="M39.88,1.9H10.12a.44.44,0,0,0-.44.44V47.66a.44.44,0,0,0,.44.44H22.21a.44.44,0,0,0,.44-.44V44a.49.49,0,0,0,0-.12l0-30.25a2.32,2.32,0,1,1,4.64,0l0,30.25a.49.49,0,0,0,0,.12v3.64a.44.44,0,0,0,.44.44H39.88a.44.44,0,0,0,.44-.44V2.34A.44.44,0,0,0,39.88,1.9Zm-.44,23.25H36.06V23.56h3.38ZM36.06,26h3.38V32.2H36.06ZM39.44,9a2.63,2.63,0,0,1-2.18-2.18h2.18Zm0-3.06H36.07V2.78h3.37ZM35.18,2.78V6.45H34.11V2.78Zm-18.4,0H33.23V6H16.78Zm-.89,0V6.45H14.82V2.78Zm-2,0V6H10.56V2.78ZM10.56,26h3.38V32.2H10.56Zm3.38-.88H10.56V23.56h3.38ZM10.56,6.85h2.18A2.63,2.63,0,0,1,10.56,9ZM21.77,47.22H10.56V44.34H21.77ZM25,10.45a3.21,3.21,0,0,0-3.2,3.2l0,29.81H10.56V33.08h3.82a.44.44,0,0,0,.44-.44V23.12a.44.44,0,0,0-.44-.44H10.56V9.93a3.57,3.57,0,0,0,3.08-3.08h.3v0a.43.43,0,0,0,.44.44h1.95a.44.44,0,0,0,.45-.44v0H33.23v0a.43.43,0,0,0,.44.44h1.95a.44.44,0,0,0,.45-.44v0h.29a3.57,3.57,0,0,0,3.08,3.08V22.68H35.62a.44.44,0,0,0-.44.44v9.52a.44.44,0,0,0,.44.44h3.82V43.46H28.22l0-29.81A3.21,3.21,0,0,0,25,10.45ZM39.44,47.22H28.23V44.34H39.44ZM25,2.87a1.5,1.5,0,1,0,1.49,1.49A1.49,1.49,0,0,0,25,2.87ZM25,5a.61.61,0,1,1,.61-.61A.61.61,0,0,1,25,5Z"/><rect class="cls-2" width="50" height="50"/></symbol><symbol id="cloth03" data-name="cloth03" viewBox="0 0 50 50"><path class="cls-3" d="M35.67,46h-.3V30.86a.13.13,0,0,0,0-.06l-1.64-18V.66a.38.38,0,0,0-.38-.38H31.1a.38.38,0,0,0-.38.38V12.45H19.28V.66A.38.38,0,0,0,18.9.28H16.66a.38.38,0,0,0-.38.38V12.82l-1.64,18V46h-.3a.38.38,0,0,0-.38.38v3a.38.38,0,0,0,.38.38H24a.38.38,0,0,0,.38-.38v-3A.38.38,0,0,0,24,46h-.3l0-9a1.31,1.31,0,0,1,2.6,0l0,9H26a.38.38,0,0,0-.38.38v3a.38.38,0,0,0,.38.38h9.65a.38.38,0,0,0,.38-.38v-3A.38.38,0,0,0,35.67,46ZM17,6.37V1h1.48V6.37Zm.25,2.23H17V7.12h1.48V8.61h-.26a.61.61,0,0,0-.48-.24A.63.63,0,0,0,17.29,8.6Zm1,.77h.26v3.09H17V9.36h.25a.63.63,0,0,0,.49.24A.61.61,0,0,0,18.26,9.37Zm13.22-3V1H33V6.37Zm.26,2.23h-.26V7.12H33V8.61h-.25a.63.63,0,0,0-.49-.24A.61.61,0,0,0,31.74,8.6Zm1,.77H33v3.09H31.48V9.36h.26a.61.61,0,0,0,.48.24A.63.63,0,0,0,32.71,9.37ZM31.07,29.08H29.78a.38.38,0,0,0-.38.38v1H20.6v-1a.38.38,0,0,0-.38-.38H18.93a.38.38,0,0,0-.38.38v1H15.41L17,13.21H33l1.61,17.27H31.45v-1A.38.38,0,0,0,31.07,29.08ZM17.43,31.26a2.44,2.44,0,0,1-2,2h0v-2h2Zm1.88.62v-2h.53v2Zm10.85,0v-2h.53v2Zm-7.22,5.05,0,9H15.39V34h0a3.2,3.2,0,0,0,2.79-2.78v0h.35v1a.38.38,0,0,0,.38.38h1.29a.38.38,0,0,0,.38-.38v-1h8.8v1a.38.38,0,0,0,.38.38h1.29a.38.38,0,0,0,.38-.38v-1h.35v0A3.2,3.2,0,0,0,34.59,34h0V46H27.08l0-9a2.06,2.06,0,0,0-4.12,0Zm9.63-5.69h2v2h0a2.44,2.44,0,0,1-2-2Zm-9,15.49V49H14.71V46.73Zm11.69,0V49H26.4V46.73Zm-3-21.61V16.18a.38.38,0,0,0-.38-.38H18.14a.38.38,0,0,0-.38.38v8.94a.38.38,0,0,0,.38.38H31.86A.38.38,0,0,0,32.24,25.12Zm-13.72-.38V16.56h7.23v8.18Zm8-5.41V16.56h5v2.77Zm0,5.41V20.08h5v4.66Z"/><rect class="cls-2" width="50" height="50"/></symbol><symbol id="cloth04" data-name="cloth04" viewBox="0 0 50 50"><path class="cls-3" d="M49.86,38.3l-.66-1.84a.45.45,0,0,0,0-.16.26.26,0,0,0-.08-.13L37.93,5.27l0-.07A.39.39,0,0,0,37.55,5H12.46a.43.43,0,0,0-.19,0,.36.36,0,0,0-.2.22L.14,38.28a.38.38,0,0,0,.23.5l7.56,2.73a.35.35,0,0,0,.3,0,.38.38,0,0,0,.21-.22l.72-2h0l2.93-8.11V44.62a.39.39,0,0,0,.39.4H37.55a.4.4,0,0,0,.39-.4V31.28l3.62,10a.43.43,0,0,0,.21.23.39.39,0,0,0,.3,0l7.56-2.73A.39.39,0,0,0,49.86,38.3ZM23.67,5.77h2.66V7.06H23.67Zm-.79,0V7.45a.4.4,0,0,0,.4.4h3.44a.4.4,0,0,0,.4-.4V5.77h5.69a6.38,6.38,0,0,1-6.36,6h-2.9a6.38,6.38,0,0,1-6.36-6Zm-15,34.87L1,38.18l.45-1.24,6.82,2.45Zm5-11.66v0l1.2-13.72a.4.4,0,0,0-.36-.43.39.39,0,0,0-.43.36L12.1,28.82,8.55,38.65,1.73,36.2l11-30.43H16.4a7.16,7.16,0,0,0,7.15,6.77h4.63v1.39H23.55a.4.4,0,0,0-.39.39V44.23H12.87ZM24,14.72h2.1V44.23H24Zm14,14.17,0,0L36.71,15.17a.39.39,0,0,0-.43-.36.4.4,0,0,0-.36.43L37.12,29a.35.35,0,0,0,0,.11V44.23H26.84V14.72h1.73a.4.4,0,0,0,.4-.4V12.15a.2.2,0,0,0,0-.07A7.16,7.16,0,0,0,33.6,5.77h3.67l11,30.44-6.82,2.45Zm4.25,11.77-.46-1.26L48.54,37,49,38.2ZM20.61,34l-5.43,5.43a.39.39,0,0,1-.56,0,.4.4,0,0,1,0-.56l5.43-5.43a.4.4,0,0,1,.56,0A.39.39,0,0,1,20.61,34Zm14.77,4.87a.4.4,0,0,1,0,.56.39.39,0,0,1-.56,0L29.39,34a.39.39,0,0,1,0-.56.4.4,0,0,1,.56,0ZM26.69,13.24a.57.57,0,1,1,1.13,0,.57.57,0,0,1-1.13,0Z"/><rect class="cls-2" width="50" height="50"/></symbol><symbol id="cloth05" data-name="cloth05" viewBox="0 0 50 50"><path class="cls-3" d="M17.49,9.41a.51.51,0,0,0-.34.13c-.23.24-5.78,5.83-5.8,9.12A21,21,0,0,0,12,23a18.32,18.32,0,0,1,.53,3.23c0,1.28-.1,4.1-.2,6.24a.45.45,0,0,0,0,.16c0,.09,0,.18,0,.26,0,.93-.07,1.57-.07,1.59v0a7,7,0,0,0,1.31,4.3,4.81,4.81,0,0,0,3.94,1.84,4.81,4.81,0,0,0,3.94-1.84,7,7,0,0,0,1.31-4.3v-.07c0-.17,0-.75-.07-1.53,0-.09,0-.18,0-.27a.45.45,0,0,0,0-.16c-.1-2.15-.21-5-.2-6.24a14.64,14.64,0,0,1,.49-2.86,20.68,20.68,0,0,0,.69-4.66c0-3.29-5.57-8.88-5.8-9.12A.51.51,0,0,0,17.49,9.41Zm0,30.23c-3.18,0-4-2.69-4.22-4a5.19,5.19,0,0,0,8.44,0C21.49,37,20.67,39.64,17.49,39.64Zm4.23-6.81a4.24,4.24,0,0,1-8.46,0c.09-1.88.23-5.23.22-6.66a18.82,18.82,0,0,0-.55-3.43c-.21-.95-.43-1.94-.54-2.85L17.49,16l5.12,4A24.75,24.75,0,0,1,22,23.1a15.43,15.43,0,0,0-.51,3.07C21.49,27.6,21.63,31,21.72,32.83ZM17.2,15l-4.9,3.78v-.1c0-2.5,4.16-7,5.19-8.1,1,1.09,5.18,5.6,5.19,8.1v.1L17.78,15a.47.47,0,0,0-.58,0Zm1.07,12.65H16.71a.47.47,0,0,0-.47.47v5.72a.47.47,0,0,0,.47.47h1.56a.47.47,0,0,0,.47-.47V28.1A.47.47,0,0,0,18.27,27.63Zm-.48.95v4.76h-.6V28.58ZM38,23a21.7,21.7,0,0,0,.65-4.29c0-3.29-5.57-8.88-5.8-9.12a.51.51,0,0,0-.68,0c-.23.24-5.78,5.83-5.8,9.12a20.68,20.68,0,0,0,.69,4.66,14.64,14.64,0,0,1,.49,2.86c0,1.27-.1,4.09-.2,6.24a.45.45,0,0,0,0,.16c0,.09,0,.18,0,.26,0,.89-.07,1.52-.07,1.59v0a7,7,0,0,0,1.31,4.3,5.14,5.14,0,0,0,7.88,0,7,7,0,0,0,1.31-4.3v0s0-.66-.07-1.58c0-.09,0-.18,0-.27a.45.45,0,0,0,0-.16c-.1-2.14-.21-5-.2-6.24A18.32,18.32,0,0,1,38,23ZM32.51,39.64c-3.17,0-4-2.69-4.22-4a5.19,5.19,0,0,0,8.44,0C36.51,37,35.69,39.64,32.51,39.64Zm4.23-6.81a4.24,4.24,0,0,1-8.46,0c.09-1.88.23-5.24.22-6.66A15.43,15.43,0,0,0,28,23.1a24.75,24.75,0,0,1-.6-3.19l5.12-4,5.1,3.94c-.11.91-.33,1.9-.54,2.85a18.82,18.82,0,0,0-.55,3.43C36.51,27.6,36.65,31,36.74,32.83ZM32.22,15l-4.9,3.78v-.1c0-2.5,4.15-7,5.19-8.1,1,1.09,5.18,5.6,5.19,8.1v.1L32.8,15A.48.48,0,0,0,32.22,15Zm1.07,12.65H31.73a.47.47,0,0,0-.47.47v5.72a.47.47,0,0,0,.47.47h1.56a.47.47,0,0,0,.47-.47V28.1A.47.47,0,0,0,33.29,27.63Zm-.48.95v4.76h-.6V28.58Z"/><rect class="cls-2" width="50" height="50"/></symbol><symbol id="arrow_bottom" data-name="arrow_bottom" viewBox="0 0 9.32 4"><path class="cls-3" d="M9.32,0,4.66,4,0,0Z"/></symbol><symbol id="arrow_top" data-name="arrow_top" viewBox="0 0 9.32 4"><path class="cls-3" d="M9.32,4,4.66,0,0,4Z"/></symbol><symbol id="radio_active" data-name="radio_active" viewBox="0 0 22.81 20"><circle class="cls-6" cx="10" cy="10" r="10"/><path class="cls-5" d="M20.92,2.21l1.89,2L10.29,15.79l-.1-.09L7.57,12.89,3.71,8.76,5.68,7l4.58,5.09Z"/></symbol><symbol id="radio" data-name="radio" viewBox="0 0 22 22"><path class="cls-4" d="M11,22A11,11,0,1,1,22,11,11,11,0,0,1,11,22ZM11,2a9,9,0,1,0,9,9A9,9,0,0,0,11,2Z"/></symbol><symbol id="radio_hover" data-name="radio_hover" viewBox="0 0 20 20"><circle class="cls-6" cx="10" cy="10" r="10"/></symbol><symbol id="brand" data-name="brand" viewBox="0 0 91.26 29.5"><path class="cls-4" d="M89.87,12.85a1.39,1.39,0,1,0,1.39,1.39,1.39,1.39,0,0,0-1.39-1.39Zm0,2.62h0a1.23,1.23,0,1,1,1.22-1.23,1.22,1.22,0,0,1-1.22,1.23Zm.71-1.6a.39.39,0,0,0-.17-.33.73.73,0,0,0-.38-.08h-.68V15h.19V14.3h.35l.45.72h.22l-.47-.72c.28,0,.49-.12.49-.43Zm-.75.28h-.29V13.6H90c.19,0,.4,0,.4.27s-.34.28-.56.28ZM81.72,6.36l2.84-3a.93.93,0,0,0,.25-.51c0-.22-.19-.31-.8-.31h-.72V.58h7.77V2.5H90c-1.18,0-1.4.18-3,2.25L82.5,9.61v3c0,.76.38,1,1.48,1h1.7v1.85H74.8V13.6h1.7c1.1,0,1.48-.27,1.48-1v-3l-5.3-5.86c-.88-1-.75-1.25-3.19-1.25V.58h9.84V2.5h-.71c-.71,0-1,.13-1,.4s.22.4.36.58L80.65,6.4a.66.66,0,0,0,1.07,0ZM15.71.58h2.37V5.93H15.89a3.43,3.43,0,0,0-1.47-2A9.18,9.18,0,0,0,8.93,2c-2.59,0-4.77.8-4.77,2,0,3.28,14.8.67,14.8,6.87,0,3.23-3.17,5-8.87,5a16.75,16.75,0,0,1-6.71-1.54c-.55-.32-.79.3-.89,1.08H.06V9.92h2.2A4.37,4.37,0,0,0,4,12.17c1.06,1,3.6,1.69,5.93,1.67,3.52,0,4.72-.8,4.72-1.92s-1.19-1.38-5-2L6.37,9.41C2.69,8.85,0,8,0,5.08s3.4-5,8.77-5a11.53,11.53,0,0,1,6,1.33c.51.33,1,.37,1-.86ZM62,9.54l0-5.95c0-.78-.41-1-1.57-1H59.14V.69h8.67V2.54H66.68c-1.16,0-1.57.27-1.57,1v12l-3.39,0-11-10.4v7.55c0,.76.41,1.05,1.57,1.05h1.51v1.83h-9V13.73H46.3c1.16,0,1.56-.29,1.56-1.05V3.59c0-.78-.4-1-1.56-1H44.81V.69h7.78L62,9.54ZM33,0C26.08,0,21.76,3.05,21.76,8s4.26,7.84,11,7.84c7.18,0,11.35-3,11.35-8.09C44.13,3.12,39.63,0,33,0Zm-.16,13.86h0c-3.82,0-6-2.2-6-6S29.1,1.92,33,1.92c3.76,0,6,2.25,6,6.08s-2.23,5.86-6.15,5.86ZM10.75,21.61a2.75,2.75,0,0,1,2.18.93,3.77,3.77,0,0,1,.78,2.51v4.24h-.63V25.1A3.31,3.31,0,0,0,12.46,23a2.07,2.07,0,0,0-1.7-.77,2.18,2.18,0,0,0-1.66.68,2.6,2.6,0,0,0-.63,1.79v4.6H7.83V24.73A2.5,2.5,0,0,0,7.12,23a2.12,2.12,0,0,0-1.62-.77,2.16,2.16,0,0,0-1.61.66,2.19,2.19,0,0,0-.65,1.61v4.8H2.59V21.75h.65v.93A2.6,2.6,0,0,1,4,22a2.82,2.82,0,0,1,3.07.1,3.16,3.16,0,0,1,1,1.12,2.91,2.91,0,0,1,2.65-1.63ZM21.3,23.44a3.71,3.71,0,0,0-3.39-1.83,3.69,3.69,0,0,0-2.72,1.19A3.87,3.87,0,0,0,14,25.56a3.73,3.73,0,0,0,1.2,2.78,4.06,4.06,0,0,0,2.89,1.14,3.58,3.58,0,0,0,2-.65,3.83,3.83,0,0,0,1.12-1.15c0,.16,0,.34,0,.52v.48a1.77,1.77,0,0,0,0,.32v.29h.64v-7.5H21.3v1.65Zm-.95-.24h0a3.28,3.28,0,0,1,1,2.38,3.12,3.12,0,0,1-1,2.32,3.2,3.2,0,0,1-2.34,1,3.24,3.24,0,0,1-2.34-1,3.19,3.19,0,0,1-1-2.33,3.28,3.28,0,0,1,1-2.35,3.12,3.12,0,0,1,2.32-1,3.28,3.28,0,0,1,2.38,1Zm8-1.43-2.72,3.66,3,3.86h-.87l0-.05c-.56-.81-1.42-1.91-2.56-3.27l-1.38,1.84v1.48h-.69V19h.69v7.77l3.74-5Zm8.33,3.8a3.91,3.91,0,0,0-1.17-2.78,3.69,3.69,0,0,0-2.72-1.17A4,4,0,0,0,30,22.75a3.51,3.51,0,0,0-1.21,2.66A4,4,0,0,0,30,28.34a3.94,3.94,0,0,0,2.92,1.16,3.56,3.56,0,0,0,2.07-.66,4.34,4.34,0,0,0,1.47-1.77l.08-.17h-.65l0,.05a4.82,4.82,0,0,1-1.36,1.45,3.68,3.68,0,0,1-1.93.43,2.9,2.9,0,0,1-2-.82,3.05,3.05,0,0,1-1-1.91c0-.17,0-.31,0-.41h7.26v-.12ZM32.8,22.25h0A3.09,3.09,0,0,1,35,23.1a3.29,3.29,0,0,1,1.06,2H29.47a3.76,3.76,0,0,1,1.14-2,3.23,3.23,0,0,1,2.19-.8ZM47,21.57a4,4,0,0,0-3.3,1.77l0-4.42H43V29.28h.66V27.72a3.61,3.61,0,0,0,1.16,1.14,3.73,3.73,0,0,0,2,.63,4,4,0,0,0,2.84-1.14,3.61,3.61,0,0,0,1.2-2.72,4,4,0,0,0-1.15-2.87A3.76,3.76,0,0,0,47,21.57Zm3.29,4h0a3,3,0,0,1-1,2.34,3.58,3.58,0,0,1-2.53.92,2.87,2.87,0,0,1-2.14-1,3.28,3.28,0,0,1,0-4.62,3.26,3.26,0,0,1,4.66,0,3.28,3.28,0,0,1,1,2.35Zm9,0a3.91,3.91,0,0,0-1.17-2.78,3.69,3.69,0,0,0-2.72-1.17,4,4,0,0,0-2.81,1.13,3.51,3.51,0,0,0-1.21,2.66,4,4,0,0,0,4.06,4.09,3.56,3.56,0,0,0,2.07-.66A4.27,4.27,0,0,0,59,27.07l.08-.17H58.4l0,.05A4.82,4.82,0,0,1,57,28.4a3.67,3.67,0,0,1-1.92.43,2.91,2.91,0,0,1-2-.82,3.15,3.15,0,0,1-1-1.91c0-.17,0-.31,0-.41h7.26v-.12Zm-3.92-3.32h0a3.09,3.09,0,0,1,2.16.85,3.24,3.24,0,0,1,1.06,2H52a3.64,3.64,0,0,1,1.14-2,3.19,3.19,0,0,1,2.18-.8Zm4.85,7V19h.65V29.28Zm1.79,0v-7.5h.66v7.5Zm0-8.87V19h.66v1.42Zm9.48,5.16a3.91,3.91,0,0,0-1.17-2.78,3.69,3.69,0,0,0-2.72-1.17,4,4,0,0,0-2.81,1.13,3.54,3.54,0,0,0-1.21,2.66,4,4,0,0,0,4.06,4.09,3.56,3.56,0,0,0,2.07-.66,4.34,4.34,0,0,0,1.47-1.77l.08-.17H70.6l0,.05A4.82,4.82,0,0,1,69.2,28.4a3.67,3.67,0,0,1-1.92.43,2.91,2.91,0,0,1-2-.82,3.15,3.15,0,0,1-1-1.91c0-.17,0-.31,0-.41h7.26v-.12Zm-3.92-3.32h0a3.09,3.09,0,0,1,2.16.85,3.24,3.24,0,0,1,1.06,2H64.24a3.64,3.64,0,0,1,1.14-2,3.21,3.21,0,0,1,2.18-.8Zm7,6.17,2.79-6.68.65.06L74.9,29.25h-.67l-3-7.5h.72l2.67,6.67ZM85.25,27a5,5,0,0,1-1.37,1.45,3.67,3.67,0,0,1-1.92.43A2.89,2.89,0,0,1,80,28a3.05,3.05,0,0,1-1-1.91c0-.17,0-.31,0-.41h7.26v-.12A3.87,3.87,0,0,0,85,22.79a3.69,3.69,0,0,0-2.72-1.17,4,4,0,0,0-2.81,1.13,3.54,3.54,0,0,0-1.21,2.66,4,4,0,0,0,1.15,2.93,3.93,3.93,0,0,0,2.91,1.16,3.59,3.59,0,0,0,2.08-.66,4.32,4.32,0,0,0,1.46-1.77l.09-.17h-.66l0,.05Zm-3-4.7h0a3.11,3.11,0,0,1,2.17.85,3.34,3.34,0,0,1,1.06,2H78.92a3.64,3.64,0,0,1,1.14-2,3.21,3.21,0,0,1,2.18-.8Zm-41.62,6A1.26,1.26,0,1,1,39.36,27a1.26,1.26,0,0,1,1.26,1.26Z"/></symbol><symbol id="brnd_active" data-name="brnd_active" viewBox="0 0 91.26 29.5"><path class="cls-5" d="M89.87,12.85a1.39,1.39,0,1,0,1.39,1.39,1.39,1.39,0,0,0-1.39-1.39Zm0,2.62h0a1.23,1.23,0,1,1,1.22-1.23,1.22,1.22,0,0,1-1.22,1.23Zm.71-1.6a.39.39,0,0,0-.17-.33.73.73,0,0,0-.38-.08h-.68V15h.19V14.3h.35l.45.72h.22l-.47-.72c.28,0,.49-.12.49-.43Zm-.75.28h-.29V13.6H90c.19,0,.4,0,.4.27s-.34.28-.56.28ZM81.72,6.36l2.84-3a.93.93,0,0,0,.25-.51c0-.22-.19-.31-.8-.31h-.72V.58h7.77V2.5H90c-1.18,0-1.4.18-3,2.25L82.5,9.61v3c0,.76.38,1,1.48,1h1.7v1.85H74.8V13.6h1.7c1.1,0,1.48-.27,1.48-1v-3l-5.3-5.86c-.88-1-.75-1.25-3.19-1.25V.58h9.84V2.5h-.71c-.71,0-1,.13-1,.4s.22.4.36.58L80.65,6.4a.66.66,0,0,0,1.07,0ZM15.71.58h2.37V5.93H15.89a3.43,3.43,0,0,0-1.47-2A9.18,9.18,0,0,0,8.93,2c-2.59,0-4.77.8-4.77,2,0,3.28,14.8.67,14.8,6.87,0,3.23-3.17,5-8.87,5a16.75,16.75,0,0,1-6.71-1.54c-.55-.32-.79.3-.89,1.08H.06V9.92h2.2A4.37,4.37,0,0,0,4,12.17c1.06,1,3.6,1.69,5.93,1.67,3.52,0,4.72-.8,4.72-1.92s-1.19-1.38-5-2L6.37,9.41C2.69,8.85,0,8,0,5.08s3.4-5,8.77-5a11.53,11.53,0,0,1,6,1.33c.51.33,1,.37,1-.86ZM62,9.54l0-5.95c0-.78-.41-1-1.57-1H59.14V.69h8.67V2.54H66.68c-1.16,0-1.57.27-1.57,1v12l-3.39,0-11-10.4v7.55c0,.76.41,1.05,1.57,1.05h1.51v1.83h-9V13.73H46.3c1.16,0,1.56-.29,1.56-1.05V3.59c0-.78-.4-1-1.56-1H44.81V.69h7.78L62,9.54ZM33,0C26.08,0,21.76,3.05,21.76,8s4.26,7.84,11,7.84c7.18,0,11.35-3,11.35-8.09C44.13,3.12,39.63,0,33,0Zm-.16,13.86h0c-3.82,0-6-2.2-6-6S29.1,1.92,33,1.92c3.76,0,6,2.25,6,6.08s-2.23,5.86-6.15,5.86ZM10.75,21.61a2.75,2.75,0,0,1,2.18.93,3.77,3.77,0,0,1,.78,2.51v4.24h-.63V25.1A3.31,3.31,0,0,0,12.46,23a2.07,2.07,0,0,0-1.7-.77,2.18,2.18,0,0,0-1.66.68,2.6,2.6,0,0,0-.63,1.79v4.6H7.83V24.73A2.5,2.5,0,0,0,7.12,23a2.12,2.12,0,0,0-1.62-.77,2.16,2.16,0,0,0-1.61.66,2.19,2.19,0,0,0-.65,1.61v4.8H2.59V21.75h.65v.93A2.6,2.6,0,0,1,4,22a2.82,2.82,0,0,1,3.07.1,3.16,3.16,0,0,1,1,1.12,2.91,2.91,0,0,1,2.65-1.63ZM21.3,23.44a3.71,3.71,0,0,0-3.39-1.83,3.69,3.69,0,0,0-2.72,1.19A3.87,3.87,0,0,0,14,25.56a3.73,3.73,0,0,0,1.2,2.78,4.06,4.06,0,0,0,2.89,1.14,3.58,3.58,0,0,0,2-.65,3.83,3.83,0,0,0,1.12-1.15c0,.16,0,.34,0,.52v.48a1.77,1.77,0,0,0,0,.32v.29h.64v-7.5H21.3v1.65Zm-.95-.24h0a3.28,3.28,0,0,1,1,2.38,3.12,3.12,0,0,1-1,2.32,3.2,3.2,0,0,1-2.34,1,3.24,3.24,0,0,1-2.34-1,3.19,3.19,0,0,1-1-2.33,3.28,3.28,0,0,1,1-2.35,3.12,3.12,0,0,1,2.32-1,3.28,3.28,0,0,1,2.38,1Zm8-1.43-2.72,3.66,3,3.86h-.87l0-.05c-.56-.81-1.42-1.91-2.56-3.27l-1.38,1.84v1.48h-.69V19h.69v7.77l3.74-5Zm8.33,3.8a3.91,3.91,0,0,0-1.17-2.78,3.69,3.69,0,0,0-2.72-1.17A4,4,0,0,0,30,22.75a3.51,3.51,0,0,0-1.21,2.66A4,4,0,0,0,30,28.34a3.94,3.94,0,0,0,2.92,1.16,3.56,3.56,0,0,0,2.07-.66,4.34,4.34,0,0,0,1.47-1.77l.08-.17h-.65l0,.05a4.82,4.82,0,0,1-1.36,1.45,3.68,3.68,0,0,1-1.93.43,2.9,2.9,0,0,1-2-.82,3.05,3.05,0,0,1-1-1.91c0-.17,0-.31,0-.41h7.26v-.12ZM32.8,22.25h0A3.09,3.09,0,0,1,35,23.1a3.29,3.29,0,0,1,1.06,2H29.47a3.76,3.76,0,0,1,1.14-2,3.23,3.23,0,0,1,2.19-.8ZM47,21.57a4,4,0,0,0-3.3,1.77l0-4.42H43V29.28h.66V27.72a3.61,3.61,0,0,0,1.16,1.14,3.73,3.73,0,0,0,2,.63,4,4,0,0,0,2.84-1.14,3.61,3.61,0,0,0,1.2-2.72,4,4,0,0,0-1.15-2.87A3.76,3.76,0,0,0,47,21.57Zm3.29,4h0a3,3,0,0,1-1,2.34,3.58,3.58,0,0,1-2.53.92,2.87,2.87,0,0,1-2.14-1,3.28,3.28,0,0,1,0-4.62,3.26,3.26,0,0,1,4.66,0,3.28,3.28,0,0,1,1,2.35Zm9,0a3.91,3.91,0,0,0-1.17-2.78,3.69,3.69,0,0,0-2.72-1.17,4,4,0,0,0-2.81,1.13,3.51,3.51,0,0,0-1.21,2.66,4,4,0,0,0,4.06,4.09,3.56,3.56,0,0,0,2.07-.66A4.27,4.27,0,0,0,59,27.07l.08-.17H58.4l0,.05A4.82,4.82,0,0,1,57,28.4a3.67,3.67,0,0,1-1.92.43,2.91,2.91,0,0,1-2-.82,3.15,3.15,0,0,1-1-1.91c0-.17,0-.31,0-.41h7.26v-.12Zm-3.92-3.32h0a3.09,3.09,0,0,1,2.16.85,3.24,3.24,0,0,1,1.06,2H52a3.64,3.64,0,0,1,1.14-2,3.19,3.19,0,0,1,2.18-.8Zm4.85,7V19h.65V29.28Zm1.79,0v-7.5h.66v7.5Zm0-8.87V19h.66v1.42Zm9.48,5.16a3.91,3.91,0,0,0-1.17-2.78,3.69,3.69,0,0,0-2.72-1.17,4,4,0,0,0-2.81,1.13,3.54,3.54,0,0,0-1.21,2.66,4,4,0,0,0,4.06,4.09,3.56,3.56,0,0,0,2.07-.66,4.34,4.34,0,0,0,1.47-1.77l.08-.17H70.6l0,.05A4.82,4.82,0,0,1,69.2,28.4a3.67,3.67,0,0,1-1.92.43,2.91,2.91,0,0,1-2-.82,3.15,3.15,0,0,1-1-1.91c0-.17,0-.31,0-.41h7.26v-.12Zm-3.92-3.32h0a3.09,3.09,0,0,1,2.16.85,3.24,3.24,0,0,1,1.06,2H64.24a3.64,3.64,0,0,1,1.14-2,3.21,3.21,0,0,1,2.18-.8Zm7,6.17,2.79-6.68.65.06L74.9,29.25h-.67l-3-7.5h.72l2.67,6.67ZM85.25,27a5,5,0,0,1-1.37,1.45,3.67,3.67,0,0,1-1.92.43A2.89,2.89,0,0,1,80,28a3.05,3.05,0,0,1-1-1.91c0-.17,0-.31,0-.41h7.26v-.12A3.87,3.87,0,0,0,85,22.79a3.69,3.69,0,0,0-2.72-1.17,4,4,0,0,0-2.81,1.13,3.54,3.54,0,0,0-1.21,2.66,4,4,0,0,0,1.15,2.93,3.93,3.93,0,0,0,2.91,1.16,3.59,3.59,0,0,0,2.08-.66,4.32,4.32,0,0,0,1.46-1.77l.09-.17h-.66l0,.05Zm-3-4.7h0a3.11,3.11,0,0,1,2.17.85,3.34,3.34,0,0,1,1.06,2H78.92a3.64,3.64,0,0,1,1.14-2,3.21,3.21,0,0,1,2.18-.8Zm-41.62,6A1.26,1.26,0,1,1,39.36,27a1.26,1.26,0,0,1,1.26,1.26Z"/></symbol></defs><use width="50" height="50" transform="translate(0 0.04)" xlink:href="#burger"/><use width="50" height="50" transform="translate(50.42 0.04)" xlink:href="#Close"/><use width="100" height="50" transform="translate(100.84 0.04)" xlink:href="#logo"/><use width="50" height="50" transform="translate(201.26 0.04)" xlink:href="#slider_button"/><use width="50" height="50" transform="translate(251.68 0.04)" xlink:href="#check"/><use width="49.68" height="49.68" transform="translate(302.1 0.2)" xlink:href="#checked"/><use width="50" height="50" transform="translate(352.2 0.04)" xlink:href="#star_checked"/><use width="50" height="50" transform="translate(402.62 0.04)" xlink:href="#star"/><use width="67.89" height="49.18" transform="translate(453.04 0.45)" xlink:href="#cloth01"/><use width="50" height="50" transform="translate(521.35 0.04)" xlink:href="#cloth02"/><use width="50" height="50" transform="translate(571.77 0.04)" xlink:href="#cloth06"/><use width="50" height="50" transform="translate(622.19 0.04)" xlink:href="#cloth03"/><use width="50" height="50" transform="translate(672.61 0.04)" xlink:href="#cloth04"/><use width="50" height="50" transform="translate(723.03 0.04)" xlink:href="#cloth05"/><use width="9.32" height="4" transform="translate(779.94 32.27)" xlink:href="#arrow_bottom"/><use width="9.32" height="4" transform="translate(779.94 19.04)" xlink:href="#arrow_top"/><use width="22.81" height="20" transform="translate(795.35 28.14)" xlink:href="#radio_active"/><use width="22" height="22" transform="translate(793.43 5.02)" xlink:href="#radio"/><use width="20" height="20" transform="translate(820.67 5.04)" xlink:href="#radio_hover"/><use width="91.26" height="29.5" transform="translate(825.67 10.28)" xlink:href="#brand"/><use width="91.26" height="29.5" transform="translate(921.88 9.47)" xlink:href="#brnd_active"/></svg>